# xmcd
#
# Track frame offsets: 
#        150
#        17484
#        34603
#        54822
#        74237
#        91291
#        108730
#        127688
#        147337
#        167212
#
# Disc length: 2535 seconds
#
# Revision: 0
# Processed by: cddbd v1.5.1PL0 Copyright (c) Steve Scherf et al.
# Submitted via: ExactAudioCopy v0.95a5
#
DISCID=8309e50a
DTITLE=Sabri Fejzullahu - Shërbëtor i këngës
DYEAR=2005
DGENRE=Pop-Folk
TTITLE0=Hyn në valle mori qikë
TTITLE1=Hajde ti
TTITLE2=Vallë si qenka dashuria
TTITLE3=Nuk jetohet në kujtime
TTITLE4=Këmbëzbathur eja
TTITLE5=Shërbëtor i këngës
TTITLE6=Unë të dua ashtu si je
TTITLE7=Kush i lanë vitet e mija
TTITLE8=Ti ke emrin lumturi
TTITLE9=Në ëndërr
EXTD=
EXTT0=
EXTT1=
EXTT2=
EXTT3=
EXTT4=
EXTT5=
EXTT6=
EXTT7=
EXTT8=
EXTT9=
PLAYORDER=
